<svg width="369" height="45" viewBox="0 0 369 45" fill="none" xmlns="http://www.w3.org/2000/svg">
<g clip-path="url(#clip0_7_731)">
<path fill-rule="evenodd" clip-rule="evenodd" d="M323.506 45.0001H362.532C364.246 44.9947 365.888 44.324 367.1 43.1344C368.311 41.9447 368.994 40.3328 369 38.6504H323.506V45.0001Z" fill="white"/>
<path fill-rule="evenodd" clip-rule="evenodd" d="M273.264 44.816H305.821C307.536 44.8133 309.179 44.1434 310.392 42.9532C311.604 41.763 312.287 40.1495 312.289 38.4663H266.796C266.801 40.1487 267.484 41.7606 268.696 42.9503C269.908 44.1399 271.55 44.8106 273.264 44.816Z" fill="white"/>
<path fill-rule="evenodd" clip-rule="evenodd" d="M216.542 44.816H249.1C250.814 44.8106 252.456 44.1399 253.668 42.9503C254.879 41.7606 255.563 40.1487 255.568 38.4663H210.127C210.129 40.1495 210.812 41.763 212.024 42.9532C213.236 44.1434 214.88 44.8133 216.594 44.816" fill="white"/>
<path fill-rule="evenodd" clip-rule="evenodd" d="M26.0067 25.501H41.7024L48.2849 31.912H32.5891L26.0067 25.501Z" fill="white"/>
<path d="M14.0397 25.501H0V31.912H14.0397V25.501Z" fill="white"/>
<path d="M194.316 25.4907H180.266V31.8711H194.316V25.4907Z" fill="white"/>
<path fill-rule="evenodd" clip-rule="evenodd" d="M119.9 31.8404H152.458C154.172 31.8377 155.816 31.1679 157.028 29.9776C158.24 28.7874 158.923 27.1739 158.925 25.4907H113.432C113.437 27.1731 114.121 28.7851 115.332 29.9747C116.544 31.1643 118.186 31.835 119.9 31.8404Z" fill="white"/>
<path fill-rule="evenodd" clip-rule="evenodd" d="M63.1369 31.8404H95.6948C97.4085 31.835 99.0504 31.1643 100.262 29.9747C101.474 28.7851 102.157 27.1731 102.163 25.4907H56.6691C56.6718 27.1739 57.3541 28.7874 58.5665 29.9776C59.7789 31.1679 61.4224 31.8377 63.1369 31.8404Z" fill="white"/>
<path fill-rule="evenodd" clip-rule="evenodd" d="M323.506 25.4705H362.532C364.245 25.4785 365.885 26.1501 367.096 27.3391C368.308 28.5282 368.992 30.1386 369 31.8201H323.506V25.4705Z" fill="white"/>
<path d="M312.331 25.4602H298.281V31.8406H312.331V25.4602Z" fill="white"/>
<path d="M280.835 25.4602H266.796V31.8406H280.835V25.4602Z" fill="white"/>
<path d="M255.589 25.4602H241.549V31.8406H255.589V25.4602Z" fill="white"/>
<path fill-rule="evenodd" clip-rule="evenodd" d="M0 19.1207H39.0257C40.7376 19.1153 42.378 18.446 43.5895 17.2586C44.8009 16.0712 45.4853 14.4619 45.4936 12.7812H0V19.1207Z" fill="white"/>
<path d="M194.316 12.7607H180.266V19.1616H194.316V12.7607Z" fill="white"/>
<path fill-rule="evenodd" clip-rule="evenodd" d="M323.506 12.7505H354.085C359.064 12.7505 363.136 15.6032 363.136 19.0899H323.558L323.506 12.7505Z" fill="white"/>
<path fill-rule="evenodd" clip-rule="evenodd" d="M132.627 12.7402H149.885C154.864 12.7402 158.936 15.593 158.936 19.0899H132.627V12.7402Z" fill="white"/>
<path fill-rule="evenodd" clip-rule="evenodd" d="M141.199 19.1105H123.941C118.962 19.1105 114.89 16.2577 114.89 12.7607H141.199V19.1105Z" fill="white"/>
<path fill-rule="evenodd" clip-rule="evenodd" d="M273.264 12.7505H305.821C307.534 12.7532 309.176 13.4216 310.388 14.6096C311.6 15.7976 312.284 17.4085 312.289 19.0899H266.796C266.804 17.4093 267.488 15.8 268.7 14.6126C269.911 13.4252 271.552 12.7559 273.264 12.7505Z" fill="white"/>
<path d="M255.589 12.7097H241.549V19.1208H255.589V12.7097Z" fill="white"/>
<path d="M255.589 12.7505H241.549V19.1309H255.589V12.7505Z" fill="white"/>
<path d="M102.225 12.7505H88.1855V19.1615H102.225V12.7505Z" fill="white"/>
<path d="M70.74 12.7505H56.7003V19.1615H70.74V12.7505Z" fill="white"/>
<path d="M210.043 0.0102539H164.55V6.39062H210.043V0.0102539Z" fill="white"/>
<path fill-rule="evenodd" clip-rule="evenodd" d="M124.128 0H146.594C151.572 0 155.645 2.85275 155.645 6.34968H115.077C115.077 2.85275 119.15 0 124.128 0Z" fill="white"/>
<path fill-rule="evenodd" clip-rule="evenodd" d="M63.1369 0H95.6948C97.4085 0.0053923 99.0504 0.676091 100.262 1.86572C101.474 3.05535 102.157 4.6673 102.163 6.34968H56.6691C56.6718 4.66647 57.3541 3.05297 58.5665 1.86276C59.7789 0.672545 61.4224 0.00270396 63.1369 0Z" fill="white"/>
<path fill-rule="evenodd" clip-rule="evenodd" d="M0 0H39.0257C40.7394 0.0053923 42.3814 0.676091 43.5931 1.86572C44.8049 3.05535 45.4881 4.6673 45.4936 6.34968H0V0Z" fill="white"/>
</g>
<defs>
<clipPath id="clip0_7_731">
<rect width="369" height="45" fill="white"/>
</clipPath>
</defs>
</svg>
